{
	"patcher" : 	{
		"fileversion" : 1,
		"appversion" : 		{
			"major" : 8,
			"minor" : 0,
			"revision" : 0,
			"architecture" : "x86",
			"modernui" : 1
		}
,
		"rect" : [ 102.0, 78.0, 1194.0, 541.0 ],
		"bglocked" : 0,
		"openinpresentation" : 0,
		"default_fontsize" : 12.0,
		"default_fontface" : 0,
		"default_fontname" : "Arial",
		"gridonopen" : 1,
		"gridsize" : [ 15.0, 15.0 ],
		"gridsnaponopen" : 1,
		"objectsnaponopen" : 1,
		"statusbarvisible" : 2,
		"toolbarvisible" : 1,
		"lefttoolbarpinned" : 0,
		"toptoolbarpinned" : 0,
		"righttoolbarpinned" : 0,
		"bottomtoolbarpinned" : 0,
		"toolbars_unpinned_last_save" : 0,
		"tallnewobj" : 0,
		"boxanimatetime" : 200,
		"enablehscroll" : 1,
		"enablevscroll" : 1,
		"devicewidth" : 0.0,
		"description" : "",
		"digest" : "",
		"tags" : "",
		"style" : "",
		"subpatcher_template" : "",
		"boxes" : [ 			{
				"box" : 				{
					"id" : "obj-11",
					"linecount" : 2,
					"maxclass" : "comment",
					"numinlets" : 1,
					"numoutlets" : 0,
					"patching_rect" : [ 33.0, 428.0, 150.0, 33.0 ],
					"presentation_rect" : [ 33.0, 428.0, 150.0, 33.0 ],
					"style" : "",
					"text" : "3. Click message box to load chords into umenu"
				}

			}
, 			{
				"box" : 				{
					"id" : "obj-15",
					"maxclass" : "newobj",
					"numinlets" : 0,
					"numoutlets" : 1,
					"outlettype" : [ "" ],
					"patching_rect" : [ 600.0, 309.0, 39.0, 22.0 ],
					"presentation_rect" : [ 600.0, 309.0, 39.0, 22.0 ],
					"style" : "",
					"text" : "r start"
				}

			}
, 			{
				"box" : 				{
					"id" : "obj-19",
					"linecount" : 2,
					"maxclass" : "comment",
					"numinlets" : 1,
					"numoutlets" : 0,
					"patching_rect" : [ 1041.0, 220.000061, 150.0, 33.0 ],
					"presentation_linecount" : 2,
					"presentation_rect" : [ 1041.0, 220.000061, 150.0, 33.0 ],
					"style" : "",
					"text" : "Get chord info in dictionary format"
				}

			}
, 			{
				"box" : 				{
					"id" : "obj-14",
					"maxclass" : "comment",
					"numinlets" : 1,
					"numoutlets" : 0,
					"patching_rect" : [ 551.0, 397.099976, 150.0, 20.0 ],
					"presentation_rect" : [ 551.0, 397.099976, 150.0, 20.0 ],
					"style" : "",
					"text" : "6. Output"
				}

			}
, 			{
				"box" : 				{
					"id" : "obj-89",
					"maxclass" : "comment",
					"numinlets" : 1,
					"numoutlets" : 0,
					"patching_rect" : [ 520.599976, 181.0, 150.0, 20.0 ],
					"presentation_rect" : [ 520.599976, 181.0, 150.0, 20.0 ],
					"style" : "",
					"text" : "5. Choose a function"
				}

			}
, 			{
				"box" : 				{
					"id" : "obj-76",
					"maxclass" : "comment",
					"numinlets" : 1,
					"numoutlets" : 0,
					"patching_rect" : [ 740.0, 65.0, 132.399994, 20.0 ],
					"presentation_rect" : [ 740.0, 65.0, 132.399994, 20.0 ],
					"style" : "",
					"text" : "4. Choose a root note"
				}

			}
, 			{
				"box" : 				{
					"id" : "obj-79",
					"maxclass" : "comment",
					"numinlets" : 1,
					"numoutlets" : 0,
					"patching_rect" : [ 111.0, 6.0, 80.400002, 20.0 ],
					"presentation_rect" : [ 111.0, 6.0, 80.400002, 20.0 ],
					"style" : "",
					"text" : "1. Start script"
				}

			}
, 			{
				"box" : 				{
					"id" : "obj-74",
					"linecount" : 3,
					"maxclass" : "comment",
					"numinlets" : 1,
					"numoutlets" : 0,
					"patching_rect" : [ 3.299999, 43.0, 123.0, 47.0 ],
					"presentation_linecount" : 3,
					"presentation_rect" : [ 3.299999, 43.0, 123.0, 47.0 ],
					"style" : "",
					"text" : "2. Bang to load all\npossible chord combinations"
				}

			}
, 			{
				"box" : 				{
					"id" : "obj-23",
					"maxclass" : "newobj",
					"numinlets" : 0,
					"numoutlets" : 1,
					"outlettype" : [ "" ],
					"patching_rect" : [ 865.0, 250.0, 39.0, 22.0 ],
					"presentation_rect" : [ 865.0, 250.0, 39.0, 22.0 ],
					"style" : "",
					"text" : "r start"
				}

			}
, 			{
				"box" : 				{
					"id" : "obj-22",
					"maxclass" : "dict.view",
					"numinlets" : 1,
					"numoutlets" : 0,
					"patching_rect" : [ 865.0, 331.0, 270.0, 188.0 ],
					"presentation_rect" : [ 865.0, 331.0, 270.0, 188.0 ],
					"style" : ""
				}

			}
, 			{
				"box" : 				{
					"id" : "obj-20",
					"maxclass" : "newobj",
					"numinlets" : 1,
					"numoutlets" : 1,
					"outlettype" : [ "" ],
					"patching_rect" : [ 1027.0, 257.0, 123.0, 22.0 ],
					"presentation_rect" : [ 1027.0, 257.0, 123.0, 22.0 ],
					"style" : "",
					"text" : "prepend getScaleInfo"
				}

			}
, 			{
				"box" : 				{
					"id" : "obj-4",
					"maxclass" : "newobj",
					"numinlets" : 1,
					"numoutlets" : 2,
					"outlettype" : [ "", "" ],
					"patching_rect" : [ 865.0, 296.0, 173.0, 22.0 ],
					"presentation_rect" : [ 865.0, 296.0, 173.0, 22.0 ],
					"saved_object_attributes" : 					{
						"autostart" : 0,
						"node" : "",
						"npm" : "",
						"running" : 1,
						"watch" : 1
					}
,
					"style" : "",
					"text" : "node.script scales.js @watch 1"
				}

			}
, 			{
				"box" : 				{
					"fontsize" : 24.0,
					"id" : "obj-83",
					"maxclass" : "message",
					"numinlets" : 2,
					"numoutlets" : 1,
					"outlettype" : [ "" ],
					"patching_rect" : [ 615.0, 389.599976, 223.0, 35.0 ],
					"presentation_rect" : [ 615.0, 389.599976, 223.0, 35.0 ],
					"style" : ""
				}

			}
, 			{
				"box" : 				{
					"id" : "obj-13",
					"maxclass" : "newobj",
					"numinlets" : 1,
					"numoutlets" : 2,
					"outlettype" : [ "", "" ],
					"patching_rect" : [ 658.0, 348.0, 173.0, 22.0 ],
					"presentation_rect" : [ 658.0, 348.0, 173.0, 22.0 ],
					"saved_object_attributes" : 					{
						"autostart" : 0,
						"node" : "",
						"npm" : "",
						"running" : 1,
						"watch" : 1
					}
,
					"style" : "",
					"text" : "node.script scales.js @watch 1"
				}

			}
, 			{
				"box" : 				{
					"fontsize" : 24.0,
					"id" : "obj-86",
					"items" : [ "getScalePitches", ",", "getScaleIntervals", ",", "getScaleChords", ",", "getSubsets", ",", "getSupersets", ",", "getMIDI" ],
					"maxclass" : "umenu",
					"numinlets" : 1,
					"numoutlets" : 3,
					"outlettype" : [ "int", "", "" ],
					"parameter_enable" : 0,
					"patching_rect" : [ 520.599976, 203.0, 238.899994, 35.0 ],
					"presentation_rect" : [ 520.599976, 203.0, 238.899994, 35.0 ],
					"style" : ""
				}

			}
, 			{
				"box" : 				{
					"id" : "obj-12",
					"maxclass" : "newobj",
					"numinlets" : 3,
					"numoutlets" : 1,
					"outlettype" : [ "" ],
					"patching_rect" : [ 658.0, 309.0, 163.0, 22.0 ],
					"presentation_rect" : [ 658.0, 309.0, 163.0, 22.0 ],
					"style" : "",
					"text" : "pak getScalePitches C Major"
				}

			}
, 			{
				"box" : 				{
					"id" : "obj-10",
					"maxclass" : "newobj",
					"numinlets" : 1,
					"numoutlets" : 3,
					"outlettype" : [ "", "", "" ],
					"patching_rect" : [ 795.0, 140.0, 75.0, 22.0 ],
					"presentation_rect" : [ 795.0, 140.0, 75.0, 22.0 ],
					"style" : "",
					"text" : "unpack s s s"
				}

			}
, 			{
				"box" : 				{
					"fontsize" : 24.0,
					"id" : "obj-48",
					"items" : [ "C", ",", "C#", "/", "Db", ",", "D", ",", "D#", "/", "Eb", ",", "E", ",", "F", ",", "F#", "/", "Gb", ",", "G", ",", "G#", "/", "Ab", ",", "A", ",", "A#", "/", "Bb", ",", "B" ],
					"maxclass" : "umenu",
					"numinlets" : 1,
					"numoutlets" : 3,
					"outlettype" : [ "int", "", "" ],
					"parameter_enable" : 0,
					"patching_rect" : [ 739.0, 92.5, 131.0, 35.0 ],
					"presentation_rect" : [ 739.0, 92.5, 131.0, 35.0 ],
					"style" : ""
				}

			}
, 			{
				"box" : 				{
					"fontsize" : 24.0,
					"id" : "obj-39",
					"items" : "<empty>",
					"maxclass" : "umenu",
					"numinlets" : 1,
					"numoutlets" : 3,
					"outlettype" : [ "int", "", "" ],
					"parameter_enable" : 0,
					"patching_rect" : [ 898.5, 92.5, 180.0, 35.0 ],
					"presentation_rect" : [ 898.5, 92.5, 180.0, 35.0 ],
					"style" : ""
				}

			}
, 			{
				"box" : 				{
					"id" : "obj-8",
					"maxclass" : "newobj",
					"numinlets" : 1,
					"numoutlets" : 0,
					"patching_rect" : [ 151.0, 61.0, 41.0, 22.0 ],
					"presentation_rect" : [ 151.0, 61.0, 41.0, 22.0 ],
					"style" : "",
					"text" : "s start"
				}

			}
, 			{
				"box" : 				{
					"id" : "obj-6",
					"maxclass" : "message",
					"numinlets" : 2,
					"numoutlets" : 1,
					"outlettype" : [ "" ],
					"patching_rect" : [ 898.5, 63.0, 71.0, 22.0 ],
					"presentation_rect" : [ 898.5, 63.0, 71.0, 22.0 ],
					"style" : "",
					"text" : "insert $1 $2"
				}

			}
, 			{
				"box" : 				{
					"id" : "obj-2",
					"maxclass" : "newobj",
					"numinlets" : 1,
					"numoutlets" : 1,
					"outlettype" : [ "list" ],
					"patching_rect" : [ 898.5, 30.0, 56.0, 22.0 ],
					"presentation_rect" : [ 898.5, 30.0, 56.0, 22.0 ],
					"style" : "",
					"text" : "listfunnel"
				}

			}
, 			{
				"box" : 				{
					"id" : "obj-7",
					"maxclass" : "button",
					"numinlets" : 1,
					"numoutlets" : 1,
					"outlettype" : [ "bang" ],
					"patching_rect" : [ 33.0, 95.0, 24.0, 24.0 ],
					"presentation_rect" : [ 33.0, 95.0, 24.0, 24.0 ],
					"style" : ""
				}

			}
, 			{
				"box" : 				{
					"id" : "obj-5",
					"maxclass" : "message",
					"numinlets" : 2,
					"numoutlets" : 1,
					"outlettype" : [ "" ],
					"patching_rect" : [ 33.0, 145.0, 443.0, 22.0 ],
					"presentation_rect" : [ 33.0, 145.0, 443.0, 22.0 ],
					"style" : ""
				}

			}
, 			{
				"box" : 				{
					"id" : "obj-3",
					"maxclass" : "message",
					"numinlets" : 2,
					"numoutlets" : 1,
					"outlettype" : [ "" ],
					"patching_rect" : [ 111.0, 28.0, 64.0, 22.0 ],
					"presentation_rect" : [ 111.0, 28.0, 64.0, 22.0 ],
					"style" : "",
					"text" : "script start"
				}

			}
, 			{
				"box" : 				{
					"id" : "obj-1",
					"maxclass" : "newobj",
					"numinlets" : 1,
					"numoutlets" : 2,
					"outlettype" : [ "", "" ],
					"patching_rect" : [ 111.0, 95.0, 173.0, 22.0 ],
					"presentation_rect" : [ 111.0, 95.0, 173.0, 22.0 ],
					"saved_object_attributes" : 					{
						"autostart" : 0,
						"node" : "",
						"npm" : "",
						"running" : 1,
						"watch" : 1
					}
,
					"style" : "",
					"text" : "node.script scales.js @watch 1"
				}

			}
 ],
		"lines" : [ 			{
				"patchline" : 				{
					"destination" : [ "obj-5", 1 ],
					"source" : [ "obj-1", 0 ]
				}

			}
, 			{
				"patchline" : 				{
					"destination" : [ "obj-12", 1 ],
					"source" : [ "obj-10", 0 ]
				}

			}
, 			{
				"patchline" : 				{
					"destination" : [ "obj-13", 0 ],
					"source" : [ "obj-12", 0 ]
				}

			}
, 			{
				"patchline" : 				{
					"destination" : [ "obj-83", 1 ],
					"source" : [ "obj-13", 0 ]
				}

			}
, 			{
				"patchline" : 				{
					"destination" : [ "obj-13", 0 ],
					"source" : [ "obj-15", 0 ]
				}

			}
, 			{
				"patchline" : 				{
					"destination" : [ "obj-6", 0 ],
					"source" : [ "obj-2", 0 ]
				}

			}
, 			{
				"patchline" : 				{
					"destination" : [ "obj-4", 0 ],
					"source" : [ "obj-20", 0 ]
				}

			}
, 			{
				"patchline" : 				{
					"destination" : [ "obj-4", 0 ],
					"source" : [ "obj-23", 0 ]
				}

			}
, 			{
				"patchline" : 				{
					"destination" : [ "obj-1", 0 ],
					"order" : 1,
					"source" : [ "obj-3", 0 ]
				}

			}
, 			{
				"patchline" : 				{
					"destination" : [ "obj-8", 0 ],
					"order" : 0,
					"source" : [ "obj-3", 0 ]
				}

			}
, 			{
				"patchline" : 				{
					"destination" : [ "obj-12", 2 ],
					"order" : 1,
					"source" : [ "obj-39", 1 ]
				}

			}
, 			{
				"patchline" : 				{
					"destination" : [ "obj-20", 0 ],
					"order" : 0,
					"source" : [ "obj-39", 1 ]
				}

			}
, 			{
				"patchline" : 				{
					"destination" : [ "obj-22", 0 ],
					"source" : [ "obj-4", 0 ]
				}

			}
, 			{
				"patchline" : 				{
					"destination" : [ "obj-10", 0 ],
					"source" : [ "obj-48", 1 ]
				}

			}
, 			{
				"patchline" : 				{
					"destination" : [ "obj-2", 0 ],
					"midpoints" : [ 42.5, 420.0, 507.0, 420.0, 507.0, 24.0, 908.0, 24.0 ],
					"source" : [ "obj-5", 0 ]
				}

			}
, 			{
				"patchline" : 				{
					"destination" : [ "obj-39", 0 ],
					"source" : [ "obj-6", 0 ]
				}

			}
, 			{
				"patchline" : 				{
					"destination" : [ "obj-1", 0 ],
					"order" : 0,
					"source" : [ "obj-7", 0 ]
				}

			}
, 			{
				"patchline" : 				{
					"destination" : [ "obj-5", 0 ],
					"order" : 1,
					"source" : [ "obj-7", 0 ]
				}

			}
, 			{
				"patchline" : 				{
					"destination" : [ "obj-12", 0 ],
					"source" : [ "obj-86", 1 ]
				}

			}
 ],
		"dependency_cache" : [  ],
		"autosave" : 0
	}

}
