{
	"patcher" : 	{
		"fileversion" : 1,
		"appversion" : 		{
			"major" : 8,
			"minor" : 0,
			"revision" : 0,
			"architecture" : "x86",
			"modernui" : 1
		}
,
		"rect" : [ 269.0, 78.0, 1062.0, 611.0 ],
		"bglocked" : 0,
		"openinpresentation" : 0,
		"default_fontsize" : 12.0,
		"default_fontface" : 0,
		"default_fontname" : "Arial",
		"gridonopen" : 1,
		"gridsize" : [ 15.0, 15.0 ],
		"gridsnaponopen" : 1,
		"objectsnaponopen" : 1,
		"statusbarvisible" : 2,
		"toolbarvisible" : 1,
		"lefttoolbarpinned" : 0,
		"toptoolbarpinned" : 0,
		"righttoolbarpinned" : 0,
		"bottomtoolbarpinned" : 0,
		"toolbars_unpinned_last_save" : 0,
		"tallnewobj" : 0,
		"boxanimatetime" : 200,
		"enablehscroll" : 1,
		"enablevscroll" : 1,
		"devicewidth" : 0.0,
		"description" : "",
		"digest" : "",
		"tags" : "",
		"style" : "",
		"subpatcher_template" : "",
		"boxes" : [ 			{
				"box" : 				{
					"id" : "obj-11",
					"linecount" : 2,
					"maxclass" : "comment",
					"numinlets" : 1,
					"numoutlets" : 0,
					"patching_rect" : [ 29.0, 156.0, 150.0, 33.0 ],
					"presentation_rect" : [ 29.0, 156.0, 150.0, 33.0 ],
					"style" : "",
					"text" : "3. Click message box to load chords into umenu"
				}

			}
, 			{
				"box" : 				{
					"id" : "obj-23",
					"maxclass" : "newobj",
					"numinlets" : 0,
					"numoutlets" : 1,
					"outlettype" : [ "" ],
					"patching_rect" : [ 728.0, 275.399963, 39.0, 22.0 ],
					"presentation_rect" : [ 728.0, 275.399963, 39.0, 22.0 ],
					"style" : "",
					"text" : "r start"
				}

			}
, 			{
				"box" : 				{
					"id" : "obj-22",
					"maxclass" : "dict.view",
					"numinlets" : 1,
					"numoutlets" : 0,
					"patching_rect" : [ 728.0, 356.399963, 270.0, 188.0 ],
					"presentation_rect" : [ 728.0, 356.399963, 270.0, 188.0 ],
					"style" : ""
				}

			}
, 			{
				"box" : 				{
					"id" : "obj-20",
					"maxclass" : "newobj",
					"numinlets" : 1,
					"numoutlets" : 1,
					"outlettype" : [ "" ],
					"patching_rect" : [ 890.0, 282.399963, 125.0, 22.0 ],
					"presentation_rect" : [ 890.0, 282.399963, 125.0, 22.0 ],
					"style" : "",
					"text" : "prepend getChordInfo"
				}

			}
, 			{
				"box" : 				{
					"id" : "obj-19",
					"linecount" : 2,
					"maxclass" : "comment",
					"numinlets" : 1,
					"numoutlets" : 0,
					"patching_rect" : [ 898.0, 244.000061, 150.0, 33.0 ],
					"presentation_linecount" : 2,
					"presentation_rect" : [ 898.0, 244.000061, 150.0, 33.0 ],
					"style" : "",
					"text" : "Get chord info in dictionary format"
				}

			}
, 			{
				"box" : 				{
					"id" : "obj-10",
					"maxclass" : "newobj",
					"numinlets" : 1,
					"numoutlets" : 3,
					"outlettype" : [ "", "", "" ],
					"patching_rect" : [ 520.5, 192.0, 75.0, 22.0 ],
					"presentation_rect" : [ 520.5, 192.0, 75.0, 22.0 ],
					"style" : "",
					"text" : "unpack s s s"
				}

			}
, 			{
				"box" : 				{
					"id" : "obj-4",
					"maxclass" : "newobj",
					"numinlets" : 1,
					"numoutlets" : 2,
					"outlettype" : [ "", "" ],
					"patching_rect" : [ 728.0, 315.399963, 191.0, 22.0 ],
					"presentation_rect" : [ 728.0, 315.399963, 191.0, 22.0 ],
					"saved_object_attributes" : 					{
						"autostart" : 0,
						"node" : "",
						"npm" : "",
						"running" : 1,
						"watch" : 1
					}
,
					"style" : "",
					"text" : "node.script chords.js @watch 1 @"
				}

			}
, 			{
				"box" : 				{
					"id" : "obj-2",
					"maxclass" : "comment",
					"numinlets" : 1,
					"numoutlets" : 0,
					"patching_rect" : [ 392.0, 408.099976, 150.0, 20.0 ],
					"presentation_rect" : [ 392.0, 408.099976, 150.0, 20.0 ],
					"style" : "",
					"text" : "6. Output"
				}

			}
, 			{
				"box" : 				{
					"id" : "obj-89",
					"maxclass" : "comment",
					"numinlets" : 1,
					"numoutlets" : 0,
					"patching_rect" : [ 258.600006, 207.0, 150.0, 20.0 ],
					"presentation_rect" : [ 258.600006, 207.0, 150.0, 20.0 ],
					"style" : "",
					"text" : "5. Choose a function"
				}

			}
, 			{
				"box" : 				{
					"id" : "obj-87",
					"maxclass" : "newobj",
					"numinlets" : 2,
					"numoutlets" : 1,
					"outlettype" : [ "" ],
					"patching_rect" : [ 511.5, 287.800018, 129.0, 22.0 ],
					"presentation_rect" : [ 511.5, 287.800018, 129.0, 22.0 ],
					"style" : "",
					"text" : "pak getChordPitches s"
				}

			}
, 			{
				"box" : 				{
					"fontsize" : 24.0,
					"id" : "obj-86",
					"items" : [ "getChordPitches", ",", "getChordIntervals", ",", "getSubsets", ",", "getSupersets", ",", "getMIDI" ],
					"maxclass" : "umenu",
					"numinlets" : 1,
					"numoutlets" : 3,
					"outlettype" : [ "int", "", "" ],
					"parameter_enable" : 0,
					"patching_rect" : [ 258.600006, 231.000061, 238.899994, 35.0 ],
					"presentation_rect" : [ 258.600006, 231.000061, 238.899994, 35.0 ],
					"style" : ""
				}

			}
, 			{
				"box" : 				{
					"fontsize" : 24.0,
					"id" : "obj-83",
					"maxclass" : "message",
					"numinlets" : 2,
					"numoutlets" : 1,
					"outlettype" : [ "" ],
					"patching_rect" : [ 452.5, 400.599976, 223.0, 35.0 ],
					"presentation_rect" : [ 452.5, 400.599976, 223.0, 35.0 ],
					"style" : ""
				}

			}
, 			{
				"box" : 				{
					"id" : "obj-81",
					"maxclass" : "newobj",
					"numinlets" : 0,
					"numoutlets" : 1,
					"outlettype" : [ "" ],
					"patching_rect" : [ 537.700012, 329.0, 39.0, 22.0 ],
					"presentation_rect" : [ 537.700012, 329.0, 39.0, 22.0 ],
					"style" : "",
					"text" : "r start"
				}

			}
, 			{
				"box" : 				{
					"id" : "obj-80",
					"maxclass" : "newobj",
					"numinlets" : 1,
					"numoutlets" : 0,
					"patching_rect" : [ 234.0, 93.0, 41.0, 22.0 ],
					"presentation_rect" : [ 234.0, 93.0, 41.0, 22.0 ],
					"style" : "",
					"text" : "s start"
				}

			}
, 			{
				"box" : 				{
					"id" : "obj-79",
					"maxclass" : "comment",
					"numinlets" : 1,
					"numoutlets" : 0,
					"patching_rect" : [ 216.0, 35.0, 80.400002, 20.0 ],
					"presentation_rect" : [ 216.0, 35.0, 80.400002, 20.0 ],
					"style" : "",
					"text" : "1. Start script"
				}

			}
, 			{
				"box" : 				{
					"id" : "obj-77",
					"maxclass" : "newobj",
					"numinlets" : 1,
					"numoutlets" : 2,
					"outlettype" : [ "", "" ],
					"patching_rect" : [ 511.5, 361.399963, 175.0, 22.0 ],
					"presentation_rect" : [ 511.5, 361.399963, 175.0, 22.0 ],
					"saved_object_attributes" : 					{
						"autostart" : 0,
						"node" : "",
						"npm" : "",
						"running" : 1,
						"watch" : 1
					}
,
					"style" : "",
					"text" : "node.script chords.js @watch 1"
				}

			}
, 			{
				"box" : 				{
					"id" : "obj-76",
					"maxclass" : "comment",
					"numinlets" : 1,
					"numoutlets" : 0,
					"patching_rect" : [ 480.0, 125.0, 132.399994, 20.0 ],
					"presentation_rect" : [ 480.0, 125.0, 132.399994, 20.0 ],
					"style" : "",
					"text" : "4. Choose a root note"
				}

			}
, 			{
				"box" : 				{
					"id" : "obj-74",
					"linecount" : 3,
					"maxclass" : "comment",
					"numinlets" : 1,
					"numoutlets" : 0,
					"patching_rect" : [ 84.0, 69.0, 123.0, 47.0 ],
					"presentation_linecount" : 3,
					"presentation_rect" : [ 84.0, 69.0, 123.0, 47.0 ],
					"style" : "",
					"text" : "2. Bang to load all\npossible chord combinations"
				}

			}
, 			{
				"box" : 				{
					"id" : "obj-68",
					"maxclass" : "newobj",
					"numinlets" : 2,
					"numoutlets" : 2,
					"outlettype" : [ "", "" ],
					"patching_rect" : [ 520.5, 228.0, 155.0, 22.0 ],
					"presentation_rect" : [ 520.5, 228.0, 155.0, 22.0 ],
					"style" : "",
					"text" : "combine C M @triggers 0 1"
				}

			}
, 			{
				"box" : 				{
					"fontsize" : 24.0,
					"id" : "obj-48",
					"items" : [ "C", ",", "C#", "/", "Db", ",", "D", ",", "D#", "/", "Eb", ",", "E", ",", "F", ",", "F#", "/", "Gb", ",", "G", ",", "G#", "/", "Ab", ",", "A", ",", "A#", "/", "Bb", ",", "B" ],
					"maxclass" : "umenu",
					"numinlets" : 1,
					"numoutlets" : 3,
					"outlettype" : [ "int", "", "" ],
					"parameter_enable" : 0,
					"patching_rect" : [ 480.0, 146.5, 131.0, 35.0 ],
					"presentation_rect" : [ 480.0, 146.5, 131.0, 35.0 ],
					"style" : ""
				}

			}
, 			{
				"box" : 				{
					"id" : "obj-45",
					"maxclass" : "message",
					"numinlets" : 2,
					"numoutlets" : 1,
					"outlettype" : [ "" ],
					"patching_rect" : [ 616.0, 101.0, 71.0, 22.0 ],
					"presentation_rect" : [ 616.0, 101.0, 71.0, 22.0 ],
					"style" : "",
					"text" : "insert $1 $2"
				}

			}
, 			{
				"box" : 				{
					"id" : "obj-43",
					"maxclass" : "newobj",
					"numinlets" : 1,
					"numoutlets" : 1,
					"outlettype" : [ "list" ],
					"patching_rect" : [ 616.0, 64.0, 56.0, 22.0 ],
					"presentation_rect" : [ 616.0, 64.0, 56.0, 22.0 ],
					"style" : "",
					"text" : "listfunnel"
				}

			}
, 			{
				"box" : 				{
					"fontsize" : 24.0,
					"id" : "obj-39",
					"items" : "<empty>",
					"maxclass" : "umenu",
					"numinlets" : 1,
					"numoutlets" : 3,
					"outlettype" : [ "int", "", "" ],
					"parameter_enable" : 0,
					"patching_rect" : [ 616.0, 145.0, 180.0, 35.0 ],
					"presentation_rect" : [ 616.0, 145.0, 180.0, 35.0 ],
					"style" : ""
				}

			}
, 			{
				"box" : 				{
					"id" : "obj-36",
					"maxclass" : "message",
					"numinlets" : 2,
					"numoutlets" : 1,
					"outlettype" : [ "" ],
					"patching_rect" : [ 51.0, 200.399963, 181.0, 22.0 ],
					"presentation_rect" : [ 51.0, 200.399963, 181.0, 22.0 ],
					"style" : ""
				}

			}
, 			{
				"box" : 				{
					"id" : "obj-21",
					"maxclass" : "button",
					"numinlets" : 1,
					"numoutlets" : 1,
					"outlettype" : [ "bang" ],
					"patching_rect" : [ 171.0, 92.0, 24.0, 24.0 ],
					"presentation_rect" : [ 171.0, 92.0, 24.0, 24.0 ],
					"style" : ""
				}

			}
, 			{
				"box" : 				{
					"id" : "obj-5",
					"maxclass" : "newobj",
					"numinlets" : 1,
					"numoutlets" : 2,
					"outlettype" : [ "", "" ],
					"patching_rect" : [ 213.0, 145.0, 175.0, 22.0 ],
					"presentation_rect" : [ 213.0, 145.0, 175.0, 22.0 ],
					"saved_object_attributes" : 					{
						"autostart" : 0,
						"node" : "",
						"npm" : "",
						"running" : 1,
						"watch" : 1
					}
,
					"style" : "",
					"text" : "node.script chords.js @watch 1"
				}

			}
, 			{
				"box" : 				{
					"id" : "obj-3",
					"maxclass" : "message",
					"numinlets" : 2,
					"numoutlets" : 1,
					"outlettype" : [ "" ],
					"patching_rect" : [ 213.0, 57.0, 64.0, 22.0 ],
					"presentation_rect" : [ 213.0, 57.0, 64.0, 22.0 ],
					"style" : "",
					"text" : "script start"
				}

			}
 ],
		"lines" : [ 			{
				"patchline" : 				{
					"destination" : [ "obj-68", 0 ],
					"source" : [ "obj-10", 0 ]
				}

			}
, 			{
				"patchline" : 				{
					"destination" : [ "obj-4", 0 ],
					"source" : [ "obj-20", 0 ]
				}

			}
, 			{
				"patchline" : 				{
					"destination" : [ "obj-36", 0 ],
					"midpoints" : [ 180.5, 147.0, 15.0, 147.0, 15.0, 195.0, 60.5, 195.0 ],
					"order" : 1,
					"source" : [ "obj-21", 0 ]
				}

			}
, 			{
				"patchline" : 				{
					"destination" : [ "obj-5", 0 ],
					"order" : 0,
					"source" : [ "obj-21", 0 ]
				}

			}
, 			{
				"patchline" : 				{
					"destination" : [ "obj-4", 0 ],
					"source" : [ "obj-23", 0 ]
				}

			}
, 			{
				"patchline" : 				{
					"destination" : [ "obj-5", 0 ],
					"order" : 1,
					"source" : [ "obj-3", 0 ]
				}

			}
, 			{
				"patchline" : 				{
					"destination" : [ "obj-80", 0 ],
					"order" : 0,
					"source" : [ "obj-3", 0 ]
				}

			}
, 			{
				"patchline" : 				{
					"destination" : [ "obj-43", 0 ],
					"midpoints" : [ 60.5, 555.0, 243.0, 555.0, 243.0, 186.0, 465.0, 186.0, 465.0, 60.0, 625.5, 60.0 ],
					"source" : [ "obj-36", 0 ]
				}

			}
, 			{
				"patchline" : 				{
					"destination" : [ "obj-68", 1 ],
					"source" : [ "obj-39", 1 ]
				}

			}
, 			{
				"patchline" : 				{
					"destination" : [ "obj-22", 0 ],
					"source" : [ "obj-4", 0 ]
				}

			}
, 			{
				"patchline" : 				{
					"destination" : [ "obj-45", 0 ],
					"source" : [ "obj-43", 0 ]
				}

			}
, 			{
				"patchline" : 				{
					"destination" : [ "obj-39", 0 ],
					"source" : [ "obj-45", 0 ]
				}

			}
, 			{
				"patchline" : 				{
					"destination" : [ "obj-10", 0 ],
					"source" : [ "obj-48", 1 ]
				}

			}
, 			{
				"patchline" : 				{
					"destination" : [ "obj-36", 1 ],
					"source" : [ "obj-5", 0 ]
				}

			}
, 			{
				"patchline" : 				{
					"destination" : [ "obj-20", 0 ],
					"order" : 0,
					"source" : [ "obj-68", 0 ]
				}

			}
, 			{
				"patchline" : 				{
					"destination" : [ "obj-87", 1 ],
					"order" : 1,
					"source" : [ "obj-68", 0 ]
				}

			}
, 			{
				"patchline" : 				{
					"destination" : [ "obj-83", 1 ],
					"source" : [ "obj-77", 0 ]
				}

			}
, 			{
				"patchline" : 				{
					"destination" : [ "obj-77", 0 ],
					"source" : [ "obj-81", 0 ]
				}

			}
, 			{
				"patchline" : 				{
					"destination" : [ "obj-87", 0 ],
					"source" : [ "obj-86", 1 ]
				}

			}
, 			{
				"patchline" : 				{
					"destination" : [ "obj-77", 0 ],
					"source" : [ "obj-87", 0 ]
				}

			}
 ],
		"dependency_cache" : [  ],
		"autosave" : 0
	}

}
